HIERARCHY
ROOT mixamorig_Hips
{
	OFFSET -0.000329 0.934763 0.013172
	CHANNELS 6 Xposition Yposition Zposition Xrotation Yrotation Zrotation
	JOINT mixamorig_Spine
	{
		OFFSET -0.000531 0.096594 0.001533
		CHANNELS 3 Xrotation Yrotation Zrotation
		JOINT mixamorig_Spine1
		{
			OFFSET -0.000284 0.099406 -0.006202
			CHANNELS 3 Xrotation Yrotation Zrotation
			JOINT mixamorig_Spine2
			{
				OFFSET -0.000665 0.100821 -0.005436
				CHANNELS 3 Xrotation Yrotation Zrotation
				JOINT mixamorig_Neck
				{
					OFFSET -0.003569 0.181005 -0.017910
					CHANNELS 3 Xrotation Yrotation Zrotation
					JOINT mixamorig_Head
					{
						OFFSET -0.000567 0.090675 0.004608
						CHANNELS 3 Xrotation Yrotation Zrotation
						End Site
						{
							OFFSET -0.027755 0.065308 0.087730
						}
						End Site
						{
							OFFSET 0.030266 0.066100 0.089151
						}
						End Site
						{
							OFFSET 0.000889 0.164225 0.030118
						}
					}
				}
				JOINT mixamorig_LeftShoulder
				{
					OFFSET 0.040153 0.123825 -0.018173
					CHANNELS 3 Xrotation Yrotation Zrotation
					JOINT mixamorig_LeftArm
					{
						OFFSET 0.096846 -0.006770 -0.015789
						CHANNELS 3 Xrotation Yrotation Zrotation
						JOINT mixamorig_LeftForeArm
						{
							OFFSET 0.260836 0.000158 -0.012098
							CHANNELS 3 Xrotation Yrotation Zrotation
							JOINT mixamorig_LeftHand
							{
								OFFSET 0.260721 0.009445 0.003518
								CHANNELS 3 Xrotation Yrotation Zrotation
								JOINT mixamorig_LeftHandThumb1
								{
									OFFSET 0.020007 -0.013915 0.025888
									CHANNELS 3 Xrotation Yrotation Zrotation
									JOINT mixamorig_LeftHandThumb2
									{
										OFFSET 0.024753 -0.016879 0.017465
										CHANNELS 3 Xrotation Yrotation Zrotation
										JOINT mixamorig_LeftHandThumb3
										{
											OFFSET 0.022267 -0.009924 0.010944
											CHANNELS 3 Xrotation Yrotation Zrotation
											End Site
											{
												OFFSET 0.012616 -0.008684 0.013475
											}
										}
									}
								}
								JOINT mixamorig_LeftHandIndex1
								{
									OFFSET 0.075712 -0.004005 0.022878
									CHANNELS 3 Xrotation Yrotation Zrotation
									JOINT mixamorig_LeftHandIndex2
									{
										OFFSET 0.032025 0.000805 0.000360
										CHANNELS 3 Xrotation Yrotation Zrotation
										JOINT mixamorig_LeftHandIndex3
										{
											OFFSET 0.021636 -0.000922 0.001709
											CHANNELS 3 Xrotation Yrotation Zrotation
											End Site
											{
												OFFSET 0.022272 0.000343 -0.000989
											}
										}
									}
								}
								JOINT mixamorig_LeftHandMiddle1
								{
									OFFSET 0.077672 0.000197 0.003119
									CHANNELS 3 Xrotation Yrotation Zrotation
									JOINT mixamorig_LeftHandMiddle2
									{
										OFFSET 0.028817 -0.000836 0.000007
										CHANNELS 3 Xrotation Yrotation Zrotation
										JOINT mixamorig_LeftHandMiddle3
										{
											OFFSET 0.027734 -0.001265 -0.001079
											CHANNELS 3 Xrotation Yrotation Zrotation
											End Site
											{
												OFFSET 0.021544 0.002739 0.001746
											}
										}
									}
								}
								JOINT mixamorig_LeftHandRing1
								{
									OFFSET 0.072647 0.000468 -0.012545
									CHANNELS 3 Xrotation Yrotation Zrotation
									JOINT mixamorig_LeftHandRing2
									{
										OFFSET 0.023428 0.001297 -0.001540
										CHANNELS 3 Xrotation Yrotation Zrotation
										JOINT mixamorig_LeftHandRing3
										{
											OFFSET 0.025300 -0.000202 0.000300
											CHANNELS 3 Xrotation Yrotation Zrotation
											End Site
											{
												OFFSET 0.021378 -0.000642 0.000026
											}
										}
									}
								}
								JOINT mixamorig_LeftHandPinky1
								{
									OFFSET 0.067362 -0.004561 -0.028241
									CHANNELS 3 Xrotation Yrotation Zrotation
									JOINT mixamorig_LeftHandPinky2
									{
										OFFSET 0.024539 0.000905 -0.001802
										CHANNELS 3 Xrotation Yrotation Zrotation
										JOINT mixamorig_LeftHandPinky3
										{
											OFFSET 0.016774 0.000497 -0.000418
											CHANNELS 3 Xrotation Yrotation Zrotation
											End Site
											{
												OFFSET 0.016253 0.001664 -0.000439
											}
										}
									}
								}
							}
						}
					}
				}
				JOINT mixamorig_RightShoulder
				{
					OFFSET -0.044710 0.123416 -0.018691
					CHANNELS 3 Xrotation Yrotation Zrotation
					JOINT mixamorig_RightArm
					{
						OFFSET -0.093285 -0.007451 -0.015294
						CHANNELS 3 Xrotation Yrotation Zrotation
						JOINT mixamorig_RightForeArm
						{
							OFFSET -0.260082 -0.000676 -0.016999
							CHANNELS 3 Xrotation Yrotation Zrotation
							JOINT mixamorig_RightHand
							{
								OFFSET -0.269354 0.006819 -0.001623
								CHANNELS 3 Xrotation Yrotation Zrotation
								JOINT mixamorig_RightHandPinky1
								{
									OFFSET -0.068944 -0.004710 -0.027276
									CHANNELS 3 Xrotation Yrotation Zrotation
									JOINT mixamorig_RightHandPinky2
									{
										OFFSET -0.028424 0.000709 -0.002294
										CHANNELS 3 Xrotation Yrotation Zrotation
										JOINT mixamorig_RightHandPinky3
										{
											OFFSET -0.014087 -0.000537 -0.000408
											CHANNELS 3 Xrotation Yrotation Zrotation
											End Site
											{
												OFFSET -0.016161 0.000319 -0.000701
											}
										}
									}
								}
								JOINT mixamorig_RightHandRing1
								{
									OFFSET -0.073644 -0.000271 -0.011566
									CHANNELS 3 Xrotation Yrotation Zrotation
									JOINT mixamorig_RightHandRing2
									{
										OFFSET -0.022262 0.002187 -0.001227
										CHANNELS 3 Xrotation Yrotation Zrotation
										JOINT mixamorig_RightHandRing3
										{
											OFFSET -0.024959 0.000014 0.001033
											CHANNELS 3 Xrotation Yrotation Zrotation
											End Site
											{
												OFFSET -0.020342 -0.002927 -0.000438
											}
										}
									}
								}
								JOINT mixamorig_RightHandMiddle1
								{
									OFFSET -0.078465 0.000178 0.003924
									CHANNELS 3 Xrotation Yrotation Zrotation
									JOINT mixamorig_RightHandMiddle2
									{
										OFFSET -0.030586 0.000877 -0.000514
										CHANNELS 3 Xrotation Yrotation Zrotation
										JOINT mixamorig_RightHandMiddle3
										{
											OFFSET -0.024860 -0.001171 -0.001812
											CHANNELS 3 Xrotation Yrotation Zrotation
											End Site
											{
												OFFSET -0.022346 -0.000216 0.001043
											}
										}
									}
								}
								JOINT mixamorig_RightHandIndex1
								{
									OFFSET -0.077138 -0.004903 0.023488
									CHANNELS 3 Xrotation Yrotation Zrotation
									JOINT mixamorig_RightHandIndex2
									{
										OFFSET -0.032982 0.000016 -0.000651
										CHANNELS 3 Xrotation Yrotation Zrotation
										JOINT mixamorig_RightHandIndex3
										{
											OFFSET -0.021521 -0.001038 0.000640
											CHANNELS 3 Xrotation Yrotation Zrotation
											End Site
											{
												OFFSET -0.019633 -0.001183 -0.002236
											}
										}
									}
								}
								JOINT mixamorig_RightHandThumb1
								{
									OFFSET -0.019217 -0.014120 0.025973
									CHANNELS 3 Xrotation Yrotation Zrotation
									JOINT mixamorig_RightHandThumb2
									{
										OFFSET -0.024531 -0.016682 0.017772
										CHANNELS 3 Xrotation Yrotation Zrotation
										JOINT mixamorig_RightHandThumb3
										{
											OFFSET -0.020595 -0.008213 0.010052
											CHANNELS 3 Xrotation Yrotation Zrotation
											End Site
											{
												OFFSET -0.018779 -0.008914 0.011284
											}
										}
									}
								}
							}
						}
					}
				}
			}
		}
	}
	JOINT mixamorig_LeftUpLeg
	{
		OFFSET 0.082644 -0.061097 -0.015299
		CHANNELS 3 Xrotation Yrotation Zrotation
		JOINT mixamorig_LeftLeg
		{
			OFFSET 0.011706 -0.407894 -0.000411
			CHANNELS 3 Xrotation Yrotation Zrotation
			JOINT mixamorig_LeftFoot
			{
				OFFSET -0.009807 -0.381384 -0.042699
				CHANNELS 3 Xrotation Yrotation Zrotation
				JOINT mixamorig_LeftToeBase
				{
					OFFSET -0.009374 -0.069665 0.102141
					CHANNELS 3 Xrotation Yrotation Zrotation
					End Site
					{
						OFFSET -0.003020 -0.006885 0.094051
					}
				}
			}
		}
	}
	JOINT mixamorig_RightUpLeg
	{
		OFFSET -0.081973 -0.063719 -0.012470
		CHANNELS 3 Xrotation Yrotation Zrotation
		JOINT mixamorig_RightLeg
		{
			OFFSET -0.006811 -0.412091 0.011100
			CHANNELS 3 Xrotation Yrotation Zrotation
			JOINT mixamorig_RightFoot
			{
				OFFSET 0.004573 -0.370721 -0.055504
				CHANNELS 3 Xrotation Yrotation Zrotation
				JOINT mixamorig_RightToeBase
				{
					OFFSET 0.011350 -0.073821 0.101054
					CHANNELS 3 Xrotation Yrotation Zrotation
					End Site
					{
						OFFSET 0.000203 -0.006417 0.095416
					}
				}
			}
		}
	}
}
MOTION
Frames: 5
Frame Time: 0.03333333333333333
-0.008075 -0.366029 0.016939 0.055035 8.314076 0.596956 14.995865 0.405238 0.220229 -0.629946 0.172118 -0.608468 -0.154595 0.224293 -0.343317 -1.056104 -1.262223 0.407415 -8.109940 -4.757169 -6.177760 2.100806 -15.732281 -5.471248 0.934488 -34.226076 -54.798071 3.824366 -58.540313 4.635558 33.391085 3.445586 40.130748 23.665148 15.645685 -8.319102 -14.034641 -3.322563 -19.089890 -14.963931 8.789736 0.806393 -0.913099 3.817142 -10.803598 -0.704072 0.658748 -23.953893 -0.546716 0.125699 -13.710394 -0.000000 -0.000000 0.000000 -0.000000 -0.000000 0.000000 0.000000 0.000000 -0.000000 -0.000000 0.000000 0.000000 0.000000 0.000000 0.000000 0.000000 -0.000000 0.000000 -0.000000 -0.000000 0.000000 0.000000 -0.000000 0.000000 0.000001 0.000000 0.000000 2.004571 -3.857664 8.556905 -10.385848 33.875393 65.324223 2.338615 51.580940 -3.370633 45.674075 5.402080 -30.757113 -0.000000 0.000000 0.000000 -0.000000 0.000000 0.000000 -0.000002 -0.000000 -0.000000 0.000000 -0.000000 -0.000000 0.000001 0.000000 -0.000001 -0.000003 -0.000000 0.000003 -0.000003 0.000000 0.000001 -0.000000 0.000000 -0.000001 0.000004 0.000000 -0.000001 4.035532 -1.762329 -16.525172 -1.678025 0.030347 39.637465 -0.917955 0.247473 17.934765 4.877602 -12.204937 6.585318 -18.775380 0.771267 28.070708 -17.440874 -22.729781 -9.262984 -86.784529 2.236663 2.476757 81.383166 13.982975 10.846938 0.875962 -13.832316 -7.350973 0.000000 -0.000000 -0.000000 -81.138489 13.203733 -16.695961 78.945824 1.100807 6.975539 2.395036 -10.100493 6.382396 0.000000 0.000000 -0.000000 
-0.008083 -0.365991 0.016906 0.054976 8.313885 0.596997 14.995319 0.404793 0.220312 -0.630243 0.171140 -0.608308 -0.154890 0.223367 -0.343022 -1.088485 -1.267257 0.409644 -8.080899 -4.777586 -6.171633 2.103953 -15.713428 -5.464279 0.937901 -34.277906 -54.780376 3.819723 -58.519438 4.630228 33.358715 3.453637 40.138748 23.665147 15.645684 -8.319102 -14.034638 -3.322563 -19.089887 -14.963929 8.789735 0.806393 -0.910514 3.815341 -10.764617 -0.702695 0.656221 -23.888384 -0.544586 0.123311 -13.644877 -0.000000 -0.000000 0.000000 -0.000000 -0.000000 0.000000 0.000000 0.000000 -0.000000 -0.000000 0.000000 0.000000 0.000000 0.000000 0.000000 0.000000 -0.000000 0.000000 -0.000000 -0.000000 0.000000 0.000000 -0.000000 0.000000 0.000001 0.000000 0.000000 1.997364 -3.842964 8.637463 -10.134514 34.121636 64.980738 2.347525 51.646420 -3.381874 45.383558 5.280124 -30.824529 -0.000000 0.000000 0.000000 -0.000000 0.000000 0.000000 -0.000002 -0.000000 -0.000000 0.000000 -0.000000 -0.000000 0.000001 0.000000 -0.000001 -0.000003 -0.000000 0.000003 -0.000003 0.000000 0.000001 -0.000000 0.000000 -0.000001 0.000004 0.000000 -0.000001 4.035532 -1.762329 -16.525172 -1.678025 0.030347 39.637461 -0.917955 0.247473 17.934765 4.877601 -12.204936 6.585317 -18.775376 0.771267 28.070703 -17.440874 -22.729781 -9.262984 -86.781477 2.237957 2.476078 81.378867 13.984492 10.847245 0.876732 -13.833818 -7.336622 0.000000 -0.000000 -0.000000 -81.136406 13.201491 -16.694388 78.942294 1.098181 6.975113 2.395571 -10.098661 6.367702 0.000000 0.000000 -0.000000 
-0.008088 -0.365975 0.016899 0.054765 8.313684 0.597013 14.998974 0.404713 0.221033 -0.630527 0.170162 -0.608138 -0.155191 0.222423 -0.342735 -1.124632 -1.282420 0.430155 -8.006873 -4.813966 -6.256287 2.105195 -15.723899 -5.441348 0.934624 -34.288473 -54.790335 3.818086 -58.512153 4.628341 33.339955 3.459966 40.154514 23.665147 15.645684 -8.319102 -14.034638 -3.322563 -19.089887 -14.963929 8.789735 0.806393 -0.907861 3.813504 -10.724476 -0.701280 0.653618 -23.820934 -0.542389 0.120865 -13.577430 -0.000000 -0.000000 0.000000 -0.000000 -0.000000 0.000000 0.000000 0.000000 -0.000000 -0.000000 0.000000 0.000000 0.000000 0.000000 0.000000 0.000000 -0.000000 0.000000 -0.000000 -0.000000 0.000000 0.000000 -0.000000 0.000000 0.000001 0.000000 0.000000 1.989139 -3.823959 8.721581 -10.005857 34.153954 64.804829 2.357632 51.720052 -3.394590 45.317882 5.238708 -30.811544 -0.000000 0.000000 0.000000 -0.000000 0.000000 0.000000 -0.000002 -0.000000 -0.000000 0.000000 -0.000000 -0.000000 0.000001 0.000000 -0.000001 -0.000003 -0.000000 0.000003 -0.000003 0.000000 0.000001 -0.000000 0.000000 -0.000001 0.000004 0.000000 -0.000001 4.035532 -1.762329 -16.525172 -1.678025 0.030347 39.637461 -0.917955 0.247473 17.934765 4.877601 -12.204936 6.585317 -18.775376 0.771267 28.070703 -17.440874 -22.729781 -9.262984 -86.779670 2.238646 2.475779 81.375830 13.984899 10.847317 0.878088 -13.834203 -7.333187 0.000000 -0.000000 -0.000000 -81.134771 13.200651 -16.694246 78.939100 1.097499 6.974986 2.397058 -10.098247 6.364908 0.000000 0.000000 -0.000000 
-0.008093 -0.365970 0.016900 0.054616 8.313521 0.597037 15.007687 0.404639 0.222517 -0.630809 0.169321 -0.607998 -0.155486 0.221626 -0.342484 -1.147381 -1.298079 0.451270 -7.947900 -4.849201 -6.361378 2.104487 -15.749565 -5.421661 0.938204 -34.271000 -54.800439 3.820252 -58.521861 4.630847 33.330354 3.468689 40.170273 23.665147 15.645684 -8.319102 -14.034638 -3.322563 -19.089887 -14.963929 8.789735 0.806393 -0.905123 3.811623 -10.683136 -0.699825 0.650936 -23.751490 -0.540123 0.118352 -13.507989 -0.000000 -0.000000 0.000000 -0.000000 -0.000000 0.000000 0.000000 0.000000 -0.000000 -0.000000 0.000000 0.000000 0.000000 0.000000 0.000000 0.000000 -0.000000 0.000000 -0.000000 -0.000000 0.000000 0.000000 -0.000000 0.000000 0.000001 0.000000 0.000000 1.980734 -3.803519 8.803640 -9.942672 34.081574 64.717888 2.368081 51.795815 -3.407719 45.363372 5.239357 -30.760418 -0.000000 0.000000 0.000000 -0.000000 0.000000 0.000000 -0.000002 -0.000000 -0.000000 0.000000 -0.000000 -0.000000 0.000001 0.000000 -0.000001 -0.000003 -0.000000 0.000003 -0.000003 0.000000 0.000001 -0.000000 0.000000 -0.000001 0.000004 0.000000 -0.000001 4.035531 -1.762328 -16.525172 -1.678025 0.030347 39.637461 -0.917955 0.247473 17.934765 4.877601 -12.204936 6.585317 -18.775376 0.771267 28.070703 -17.440874 -22.729781 -9.262984 -86.778756 2.238636 2.476131 81.374439 13.984520 10.847298 0.878801 -13.834139 -7.334222 0.000000 -0.000000 -0.000000 -81.134025 13.200232 -16.694144 78.937775 1.097411 6.974970 2.397667 -10.098405 6.366017 0.000000 0.000000 -0.000000 
-0.008099 -0.365969 0.016896 0.054731 8.313397 0.597069 15.022076 0.404519 0.224746 -0.631118 0.168717 -0.607918 -0.155800 0.221084 -0.342292 -1.144634 -1.305509 0.455890 -7.951916 -4.868979 -6.421647 2.102615 -15.775485 -5.422789 0.957996 -34.240084 -54.786569 3.826632 -58.550326 4.638211 33.327457 3.481545 40.178363 23.665147 15.645684 -8.319102 -14.034638 -3.322563 -19.089887 -14.963929 8.789735 0.806393 -0.902305 3.809692 -10.640621 -0.698326 0.648180 -23.680072 -0.537790 0.115776 -13.436574 -0.000000 -0.000000 0.000000 -0.000000 -0.000000 0.000000 0.000000 0.000000 -0.000000 -0.000000 0.000000 0.000000 0.000000 0.000000 0.000000 0.000000 -0.000000 0.000000 -0.000000 -0.000000 0.000000 0.000000 -0.000000 0.000000 0.000001 0.000000 0.000000 1.972773 -3.783754 8.879346 -9.899482 33.986366 64.658922 2.378402 51.870363 -3.420681 45.434200 5.251315 -30.704191 -0.000000 0.000000 0.000000 -0.000000 0.000000 0.000000 -0.000002 -0.000000 -0.000000 0.000000 -0.000000 -0.000000 0.000001 0.000000 -0.000001 -0.000003 -0.000000 0.000003 -0.000003 0.000000 0.000001 -0.000000 0.000000 -0.000001 0.000004 0.000000 -0.000001 4.035531 -1.762328 -16.525172 -1.678025 0.030347 39.637461 -0.917955 0.247473 17.934765 4.877601 -12.204936 6.585317 -18.775376 0.771267 28.070703 -17.440874 -22.729781 -9.262984 -86.778362 2.238377 2.476693 81.373579 13.983862 10.847257 0.879293 -13.833928 -7.336825 0.000000 -0.000000 -0.000000 -81.133774 13.199992 -16.694008 78.937113 1.097462 6.974972 2.397953 -10.098786 6.368566 0.000000 0.000000 -0.000000 
